<mxfile host="app.diagrams.net" modified="2023-06-28T07:12:21.292Z" agent="Mozilla/5.0 (Windows NT 10.0; Win64; x64) AppleWebKit/537.36 (KHTML, like Gecko) Chrome/114.0.0.0 Safari/537.36" etag="jIto-n3ExpJfJmB4go2J" version="21.5.1" type="github">
  <diagram name="第 1 页" id="hZh6zcK8y-LiBova4lUp">
    <mxGraphModel dx="1014" dy="676" grid="1" gridSize="10" guides="1" tooltips="1" connect="1" arrows="1" fold="1" page="1" pageScale="1" pageWidth="827" pageHeight="1169" math="0" shadow="0">
      <root>
        <mxCell id="0" />
        <mxCell id="1" parent="0" />
        <mxCell id="r60IOZdd_B0maQwOtjJB-4" style="edgeStyle=orthogonalEdgeStyle;rounded=0;orthogonalLoop=1;jettySize=auto;html=1;" edge="1" parent="1" source="r60IOZdd_B0maQwOtjJB-1" target="r60IOZdd_B0maQwOtjJB-3">
          <mxGeometry relative="1" as="geometry" />
        </mxCell>
        <mxCell id="r60IOZdd_B0maQwOtjJB-5" style="edgeStyle=orthogonalEdgeStyle;rounded=0;orthogonalLoop=1;jettySize=auto;html=1;entryX=0;entryY=0.5;entryDx=0;entryDy=0;entryPerimeter=0;" edge="1" parent="1" source="r60IOZdd_B0maQwOtjJB-1" target="r60IOZdd_B0maQwOtjJB-2">
          <mxGeometry relative="1" as="geometry" />
        </mxCell>
        <mxCell id="r60IOZdd_B0maQwOtjJB-1" value="" style="shape=cylinder3;whiteSpace=wrap;html=1;boundedLbl=1;backgroundOutline=1;size=15;" vertex="1" parent="1">
          <mxGeometry x="240" y="160" width="100" height="90" as="geometry" />
        </mxCell>
        <mxCell id="r60IOZdd_B0maQwOtjJB-2" value="" style="shape=cylinder3;whiteSpace=wrap;html=1;boundedLbl=1;backgroundOutline=1;size=15;" vertex="1" parent="1">
          <mxGeometry x="480" y="300" width="100" height="90" as="geometry" />
        </mxCell>
        <mxCell id="r60IOZdd_B0maQwOtjJB-3" value="" style="shape=cylinder3;whiteSpace=wrap;html=1;boundedLbl=1;backgroundOutline=1;size=15;" vertex="1" parent="1">
          <mxGeometry x="480" y="160" width="100" height="90" as="geometry" />
        </mxCell>
      </root>
    </mxGraphModel>
  </diagram>
</mxfile>
